<svg width="105" height="33" viewBox="0 0 105 33" fill="none" xmlns="http://www.w3.org/2000/svg">
<g clip-path="url(#clip0_2_68)">
<path d="M12.5182 0.107115C16.3763 -0.3558 22.3779 0.724334 26.0847 2.52456C28.1273 3.52754 30.1698 5.43063 30.9516 7.10226C32.1367 9.59686 32.4898 13.2487 31.9854 17.5693C30.6994 28.2677 26.0595 32.974 16.805 32.9999C6.61746 33.0255 0.464592 27.2648 0.0359087 17.2864C-0.140608 13.5316 0.313292 11.1656 1.85151 7.8995C3.99493 3.34751 7.67656 0.672899 12.5182 0.107115ZM8.71012 12.584C8.37822 12.584 7.83009 13.0233 7.06571 13.9019L6.96385 14.02C6.26738 14.835 5.91915 15.4022 5.91915 15.7217C5.91915 15.8263 5.96944 15.8786 6.07002 15.8786C6.41197 15.8786 6.80421 16.208 7.24675 16.8669C7.68928 17.5259 8.09661 18.19 8.46874 18.8594L8.53341 18.974C8.87307 19.5669 9.12809 19.8634 9.29848 19.8634C9.62032 19.8634 9.97233 19.5967 10.3545 19.0633C10.7367 18.5299 11.0937 18.0017 11.4256 17.4788C11.7575 16.9558 12.019 16.6944 12.2101 16.6944C12.4012 16.6944 12.4968 17.1441 12.4968 18.0436L12.4666 18.5456C12.4666 18.9639 12.5621 19.3509 12.7532 19.7065C12.9443 20.0621 13.2259 20.2399 13.5981 20.2399C13.9702 20.2399 14.4127 19.9262 14.9257 19.2986C15.4386 18.6711 15.9415 18.0436 16.4343 17.416L16.4787 17.3599C16.9486 16.7698 17.2909 16.4747 17.5054 16.4747C17.7133 16.4747 18.0321 16.747 18.4618 17.2916L18.6421 17.5238C19.0946 18.0997 19.6259 18.6756 20.236 19.2516C20.8898 19.8686 21.4832 20.1772 22.0162 20.1772C22.5493 20.1772 23.1175 19.9889 23.721 19.6124C23.9422 19.466 24.2087 19.262 24.5205 19.0006C24.8323 18.7391 25.0737 18.5351 25.2447 18.3887L25.321 18.3224C25.4534 18.2061 25.6115 18.0604 25.7952 17.8854L26.0933 17.5994C26.2039 17.4935 26.2894 17.4124 26.3497 17.3562L26.4214 17.2905C26.4918 17.2278 26.527 17.1546 26.527 17.0709C26.527 16.9036 26.4063 16.8199 26.1649 16.8199C25.9236 16.8199 25.6319 16.8826 25.2899 17.0081C24.948 17.1336 24.596 17.1964 24.2339 17.1964C23.8718 17.1964 23.4142 16.9925 22.861 16.5846C22.3079 16.1767 21.8503 15.7217 21.4882 15.2197C20.5025 13.9018 19.7985 13.2429 19.3761 13.2429C18.9939 13.2429 18.3854 13.7607 17.5507 14.7961C16.7159 15.8315 16.1979 16.3492 15.9968 16.3492C15.8761 16.3492 15.7956 16.1871 15.7554 15.8629C15.7152 15.5387 15.68 15.1883 15.6498 14.8118C15.6196 14.4353 15.509 14.0849 15.3179 13.7607C15.1268 13.4364 14.8351 13.2743 14.4429 13.2743C14.0507 13.2743 13.5176 13.7031 12.8438 14.5608L12.7533 14.6751C12.1297 15.4565 11.7123 15.8472 11.5011 15.8472C11.2934 15.8472 10.8951 15.3679 10.3062 14.4093L10.1077 14.0825C9.49404 13.0835 9.02819 12.584 8.71012 12.584Z" fill="#111118"/>
<path d="M37.8506 18.3865V17.9299L38.3411 17.7907C38.5776 17.7158 38.7341 17.6052 38.8107 17.459C38.8837 17.3127 38.9289 17.1201 38.9463 16.874V12.3437C38.9463 11.8407 38.9463 11.4127 38.9463 11.0595C38.9463 10.7099 38.9394 10.2961 38.9255 9.8217C38.9255 9.5613 38.8872 9.36154 38.8141 9.21528C38.7411 9.06903 38.5741 8.96558 38.3237 8.90494L37.8506 8.79079V8.377L41.4683 7.05002L41.7361 7.30329L41.8927 8.83717C42.4144 8.34846 42.9954 7.92754 43.6354 7.57796C44.2755 7.22838 44.9294 7.05002 45.6008 7.05002C46.3452 7.05002 46.9261 7.20341 47.3435 7.50661C47.761 7.81339 48.081 8.27712 48.3036 8.90494C48.8706 8.32349 49.4933 7.87047 50.1786 7.54229C50.8638 7.21411 51.5421 7.05002 52.21 7.05002C53.2223 7.05002 53.9806 7.31042 54.4885 7.82766C54.9929 8.34846 55.2468 9.16534 55.2468 10.2783V16.8954C55.2468 17.3841 55.4555 17.6909 55.8729 17.8121L56.2973 17.9263V18.3829H51.2708V17.9263L51.6743 17.8121C52.0778 17.673 52.2761 17.3627 52.2761 16.874V10.1677C52.2761 9.51136 52.1613 9.06546 51.9283 8.82646C51.6987 8.59103 51.323 8.46975 50.8012 8.46975C50.3977 8.46975 50.0185 8.55536 49.6637 8.72302C49.3054 8.89067 48.9124 9.15108 48.481 9.50066C48.5715 9.95725 48.6167 10.4852 48.6167 11.0809V16.8989C48.6306 17.1593 48.6793 17.3591 48.7628 17.5054C48.8428 17.6516 49.0063 17.7551 49.2428 17.8157L49.622 17.9299V18.3865H44.5711V17.9299L45.0407 17.7907C45.2773 17.7158 45.4373 17.6052 45.5208 17.459C45.6008 17.3127 45.6425 17.1201 45.6425 16.874V10.1891C45.6425 9.56487 45.5312 9.11897 45.3086 8.86214C45.086 8.60173 44.7068 8.47332 44.1711 8.47332C43.4858 8.47332 42.7484 8.80863 41.9588 9.48282V16.9025C41.9588 17.4055 42.1675 17.7123 42.5849 17.8193L42.9641 17.9334V18.39H37.8506V18.3865Z" fill="#111118"/>
<path d="M62.9304 7.68002C63.8544 7.68002 64.6449 7.8744 65.3019 8.25969C65.9623 8.64498 66.4688 9.17606 66.8281 9.85292C67.1874 10.5298 67.3654 11.3038 67.3654 12.182C67.3654 12.3764 67.3585 12.5569 67.3448 12.727C67.3311 12.897 67.3003 13.0567 67.2559 13.206H60.6445C60.6582 14.7367 60.9423 15.837 61.4898 16.5035C62.0407 17.1734 62.8415 17.5066 63.8954 17.5066C64.6278 17.5066 65.2198 17.3851 65.6749 17.1387C66.13 16.8923 66.5475 16.5486 66.9273 16.1008L67.2798 16.4341C66.8418 17.2498 66.2429 17.885 65.4901 18.3397C64.7373 18.7909 63.8373 19.02 62.8004 19.02C61.7601 19.02 60.8464 18.7979 60.0525 18.3501C59.2621 17.9058 58.6427 17.2637 58.1978 16.4237C57.7495 15.5837 57.5271 14.577 57.5271 13.4038C57.5271 12.1855 57.7872 11.1546 58.3073 10.3076C58.8275 9.46068 59.5016 8.81159 60.3297 8.35688C61.1544 7.90564 62.0202 7.68002 62.9304 7.68002ZM62.8209 8.32564C62.3966 8.32564 62.027 8.44713 61.7122 8.69358C61.3974 8.94002 61.1476 9.37044 60.9662 9.98482C60.7814 10.6027 60.6753 11.467 60.648 12.5812H64.5798C64.7407 11.0817 64.6825 9.99523 64.4053 9.32878C64.1247 8.65887 63.5977 8.32564 62.8209 8.32564Z" fill="#111118"/>
<path d="M72.367 19.65C71.5281 19.65 70.7787 19.4469 70.1089 19.0441C69.4425 18.6414 68.9219 18.0142 68.5439 17.1695C68.1692 16.3213 67.9802 15.245 67.9802 13.9334C67.9802 12.6219 68.1924 11.5277 68.6202 10.651C69.0446 9.77426 69.6149 9.11493 70.3245 8.673C71.034 8.23106 71.8133 8.0101 72.6654 8.0101C73.176 8.0101 73.6668 8.07425 74.1343 8.20612C74.6018 8.33442 75.013 8.53044 75.3678 8.79061V5.80757C75.3678 5.48681 75.3213 5.25515 75.2285 5.10903C75.1357 4.9629 74.9467 4.85242 74.6648 4.77758L74.2371 4.68492V4.25367L77.9408 3.27002L78.216 3.47673L78.1298 6.70212V17.7077C78.1298 17.9963 78.1795 18.2387 78.279 18.4276C78.3785 18.62 78.5542 18.7519 78.8128 18.8267L79.0483 18.8945V19.3293L75.5137 19.5823L75.3213 18.62C74.9367 18.9408 74.499 19.1903 74.0017 19.3756C73.5043 19.5609 72.9638 19.65 72.367 19.65ZM73.5375 18.5986C74.1476 18.5986 74.7212 18.3848 75.2617 17.9571V9.44638C74.7378 9.09711 74.1675 8.91891 73.5607 8.91891C72.8644 8.91891 72.2675 9.31095 71.7735 10.0986C71.2761 10.8862 71.0274 12.1479 71.0274 13.8835C71.0274 15.6227 71.2628 16.8416 71.7304 17.5437C72.1979 18.2494 72.8014 18.5986 73.5375 18.5986Z" fill="#111118"/>
<path d="M80.2814 19.0164V18.5705L80.6025 18.4755C80.89 18.3805 81.0807 18.2416 81.181 18.0515C81.2813 17.8615 81.3381 17.613 81.3515 17.3023V12.9899C81.3515 12.5038 81.3515 12.0543 81.3515 11.6413C81.3515 11.2284 81.3448 10.8008 81.3315 10.3622C81.3315 10.0479 81.278 9.80307 81.1709 9.62399C81.0639 9.44491 80.8666 9.32431 80.579 9.25853L80.2781 9.18909V8.76516L84.0368 7.40564L84.2943 7.66512L84.2308 10.9981V17.3316C84.2308 17.6459 84.2843 17.8944 84.3913 18.0808C84.4983 18.2672 84.6889 18.4097 84.9598 18.5047L85.1972 18.5742V19.02H80.2814V19.0164ZM82.7527 6.1119C82.2812 6.1119 81.8799 5.94744 81.5522 5.61853C81.2211 5.28961 81.0572 4.87664 81.0572 4.37596C81.0572 3.86066 81.2211 3.44038 81.5522 3.12242C81.8799 2.80082 82.2812 2.64001 82.7527 2.64001C83.2242 2.64001 83.6255 2.80082 83.9566 3.12242C84.2843 3.44403 84.4515 3.86066 84.4515 4.37596C84.4515 4.87664 84.2876 5.28961 83.9566 5.61853C83.6255 5.9511 83.2242 6.1119 82.7527 6.1119Z" fill="#111118"/>
<path d="M90.4673 19.02C89.6462 19.02 88.9987 18.7883 88.5277 18.3212C88.0568 17.8541 87.8213 17.0947 87.8213 16.0429C87.8213 15.6756 87.8244 15.3298 87.8306 15.0018C87.8368 14.6737 87.8399 14.2887 87.8399 13.8466V8.4235H86.427V7.92078L86.963 7.82807C87.3472 7.7532 87.6757 7.61415 87.9483 7.41448C88.221 7.21481 88.4688 6.94028 88.695 6.59086L89.9871 4.53003H90.5851L90.5262 7.71041H92.7942V8.41994H90.5076V16.2247C90.5076 16.7738 90.6098 17.1874 90.8174 17.4619C91.0219 17.7365 91.2791 17.8755 91.5827 17.8755C91.8492 17.8755 92.0878 17.8042 92.2985 17.658C92.5092 17.5118 92.7229 17.3193 92.9336 17.0733L93.1908 17.4156C92.9398 17.9183 92.5866 18.3105 92.1373 18.5957C91.6881 18.881 91.1304 19.02 90.4673 19.02Z" fill="#111118"/>
<path d="M99.6439 19.02C98.5952 19.02 97.6789 18.791 96.8949 18.3295C96.1077 17.868 95.499 17.2156 95.069 16.3689C94.6356 15.5223 94.4206 14.5125 94.4206 13.3396C94.4206 12.1667 94.6488 11.157 95.112 10.3103C95.5718 9.46361 96.1937 8.81472 96.981 8.36015C97.7682 7.90557 98.6548 7.68002 99.6472 7.68002C100.64 7.68002 101.526 7.90557 102.313 8.36015C103.101 8.81472 103.723 9.46014 104.182 10.2999C104.642 11.1396 104.874 12.1529 104.874 13.3396C104.874 14.5125 104.659 15.5257 104.225 16.3793C103.792 17.233 103.187 17.8853 102.409 18.3399C101.629 18.7945 100.706 19.02 99.6439 19.02ZM99.6439 18.3989C100.153 18.3989 100.567 18.2532 100.888 17.9651C101.205 17.6771 101.437 17.167 101.579 16.4383C101.721 15.7096 101.791 14.6929 101.791 13.3847C101.791 12.0626 101.721 11.0355 101.579 10.2999C101.437 9.56424 101.209 9.05068 100.888 8.76267C100.57 8.47466 100.157 8.32892 99.6439 8.32892C99.1311 8.32892 98.7242 8.47466 98.4133 8.76267C98.1024 9.05068 97.8708 9.56424 97.7219 10.2999C97.5731 11.0355 97.5003 12.0626 97.5003 13.3847C97.5003 14.6929 97.5731 15.7096 97.7219 16.4383C97.8708 17.167 98.099 17.6737 98.4133 17.9651C98.7242 18.2532 99.1344 18.3989 99.6439 18.3989Z" fill="#111118"/>
<path d="M38.4655 30.36V22.8H42.7697V23.4192H39.1452V26.2653H42.4332V26.8845H39.1452V30.36H38.4655Z" fill="#111118"/>
<path d="M50.7633 26.58C50.7633 27.3453 50.6183 28.0142 50.3282 28.5798C50.0381 29.1455 49.6384 29.5847 49.1325 29.8942C48.6231 30.2036 48.0394 30.36 47.3814 30.36C46.7234 30.36 46.1397 30.2036 45.6303 29.8942C45.1209 29.5847 44.7247 29.1455 44.4346 28.5798C44.1446 28.0142 43.9995 27.3487 43.9995 26.58C43.9995 25.8147 44.1446 25.1459 44.4346 24.5802C44.7247 24.0145 45.1209 23.5753 45.6303 23.2659C46.1397 22.9564 46.7234 22.8 47.3779 22.8C48.0359 22.8 48.6196 22.9564 49.129 23.2659C49.6384 23.5753 50.0346 24.0145 50.3247 24.5802C50.6183 25.1459 50.7633 25.8147 50.7633 26.58ZM50.0664 26.58C50.0664 25.9212 49.9497 25.3555 49.7162 24.8863C49.4827 24.4172 49.1608 24.0545 48.7575 23.8082C48.3542 23.5587 47.8944 23.4356 47.3779 23.4356C46.8649 23.4356 46.4086 23.5587 46.0018 23.8082C45.5985 24.0578 45.2766 24.4172 45.0396 24.8863C44.8025 25.3555 44.6858 25.9212 44.6858 26.5833C44.6858 27.2422 44.8025 27.8045 45.036 28.2737C45.2695 28.7429 45.5914 29.1022 45.9947 29.3518C46.398 29.6014 46.8579 29.7278 47.3743 29.7278C47.8908 29.7278 48.3472 29.6047 48.754 29.3551C49.1608 29.1056 49.4792 28.7462 49.7127 28.277C49.9461 27.8079 50.07 27.2389 50.0664 26.58Z" fill="#111118"/>
<path d="M57.4751 22.8H58.1421V27.7212C58.1421 28.2255 58.0265 28.6793 57.7921 29.0759C57.5576 29.4726 57.234 29.7886 56.8213 30.0171C56.4052 30.2457 55.9232 30.36 55.375 30.36C54.8269 30.36 54.3481 30.2457 53.9321 30.0138C53.5161 29.7818 53.1925 29.4692 52.958 29.0726C52.7236 28.6759 52.608 28.2255 52.608 27.7179V22.8H53.275V27.6742C53.275 28.0675 53.3609 28.4204 53.5359 28.7297C53.7109 29.039 53.9519 29.281 54.2689 29.4558C54.5859 29.6306 54.9524 29.7213 55.375 29.7213C55.7977 29.7213 56.1675 29.6339 56.4845 29.4558C56.8015 29.2776 57.0458 29.0356 57.2175 28.7297C57.3892 28.4204 57.4751 28.0708 57.4751 27.6742V22.8Z" fill="#111118"/>
<path d="M66.1356 22.8V30.36H65.4357L60.7687 24.0281H60.708V30.36H59.9867V22.8H60.683L65.3643 29.1422H65.425V22.8H66.1356Z" fill="#111118"/>
<path d="M70.7133 30.36H68.5951V22.8H70.8407C71.5304 22.8 72.1188 22.9505 72.6091 23.2516C73.0995 23.5526 73.4754 23.9836 73.7369 24.5446C73.9984 25.1056 74.1291 25.7795 74.1291 26.5663C74.1291 27.36 73.9951 28.0407 73.7303 28.6051C73.4623 29.173 73.0733 29.6074 72.5666 29.9119C72.0534 30.2095 71.4389 30.36 70.7133 30.36ZM69.2554 29.7409H70.674C71.2951 29.7409 71.8148 29.6143 72.2332 29.3577C72.6516 29.1012 72.9654 28.7351 73.1746 28.2596C73.3838 27.7841 73.4884 27.2197 73.4884 26.5595C73.4852 25.9061 73.3838 25.3451 73.1812 24.8765C72.9785 24.4078 72.6778 24.0452 72.279 23.7955C71.8802 23.5458 71.3866 23.4192 70.8015 23.4192H69.2554V29.7409Z" fill="#111118"/>
<path d="M74.8438 30.36H74.1292L76.8395 22.8H77.5677L80.2781 30.36H79.5634L77.2272 23.6959H77.1766L74.8438 30.36ZM75.3562 27.4639H79.0543V28.0828H75.3562V27.4639Z" fill="#111118"/>
<path d="M80.2781 23.4189V22.8H85.8121V23.4189H83.392V30.36H82.6947V23.4189H80.2781Z" fill="#111118"/>
<path d="M88.2716 22.8V30.36H87.6567V22.8H88.2716Z" fill="#111118"/>
<path d="M96.8801 26.58C96.8801 27.3453 96.7351 28.0142 96.445 28.5798C96.1549 29.1455 95.7552 29.5847 95.2493 29.8942C94.7399 30.2036 94.1562 30.36 93.4982 30.36C92.8402 30.36 92.2566 30.2036 91.7471 29.8942C91.2377 29.5847 90.8415 29.1455 90.5515 28.5798C90.2614 28.0142 90.1163 27.3487 90.1163 26.58C90.1163 25.8147 90.2614 25.1459 90.5515 24.5802C90.8415 24.0145 91.2377 23.5753 91.7471 23.2659C92.2566 22.9564 92.8402 22.8 93.4947 22.8C94.1527 22.8 94.7364 22.9564 95.2458 23.2659C95.7552 23.5753 96.1514 24.0145 96.4415 24.5802C96.7316 25.1459 96.8801 25.8147 96.8801 26.58ZM96.1832 26.58C96.1832 25.9212 96.0665 25.3555 95.833 24.8863C95.5995 24.4172 95.2812 24.0545 94.8743 23.8082C94.4675 23.562 94.0112 23.4356 93.4947 23.4356C92.9818 23.4356 92.5254 23.5587 92.1186 23.8082C91.7153 24.0578 91.3934 24.4172 91.1599 24.8863C90.9264 25.3555 90.8062 25.9212 90.8062 26.5833C90.8062 27.2422 90.9229 27.8045 91.1564 28.2737C91.3899 28.7429 91.7118 29.1022 92.115 29.3518C92.5183 29.6014 92.9782 29.7278 93.4947 29.7278C94.0112 29.7278 94.4675 29.6047 94.8743 29.3551C95.2812 29.1056 95.5995 28.7462 95.8366 28.277C96.07 27.8045 96.1868 27.2389 96.1832 26.58Z" fill="#111118"/>
<path d="M104.259 22.8V30.36H103.559L98.8924 24.0281H98.8316V30.36H98.1099V22.8H98.8066L103.491 29.1422H103.551V22.8H104.259Z" fill="#111118"/>
</g>
<defs>
<clipPath id="clip0_2_68">
<rect width="105" height="33" fill="white"/>
</clipPath>
</defs>
</svg>
